<?xml version="1.0" encoding="UTF-8" standalone="no"?>
<!DOCTYPE svg PUBLIC "-//W3C//DTD SVG 1.0//EN" "http://www.w3.org/TR/2001/PR-SVG-20010719/DTD/svg10.dtd">
<svg width="30cm" height="20cm" viewBox="257 -147 582 394" xmlns="http://www.w3.org/2000/svg" xmlns:xlink="http://www.w3.org/1999/xlink">
  <g>
    <rect style="fill: #ffc760" x="720" y="-3" width="118.4" height="18"/>
    <rect style="fill: none; fill-opacity:0; stroke-width: 2; stroke: #000000" x="720" y="-3" width="118.4" height="18"/>
    <text font-size="11.2" style="fill: #000000;text-anchor:middle;font-family:sans-serif;font-style:normal;font-weight:700" x="779.2" y="11">Form</text>
    <rect style="fill: #ffc760" x="720" y="15" width="118.4" height="52"/>
    <rect style="fill: none; fill-opacity:0; stroke-width: 2; stroke: #000000" x="720" y="15" width="118.4" height="52"/>
    <polygon style="fill: #000000" points="723,25 725,28 727,25 725,22 "/>
    <text font-size="12.8" style="fill: #000000;text-anchor:start;font-family:monospace;font-style:normal;font-weight:normal" x="729" y="31">@orid</text>
    <text font-size="12.8" style="fill: #000000;text-anchor:start;font-family:monospace;font-style:normal;font-weight:normal" x="785.2" y="31">ORID</text>
    <line style="fill: none; fill-opacity:0; stroke-width: 1; stroke: #000000" x1="729" y1="32.6" x2="816" y2="32.6"/>
    <ellipse style="fill: none; fill-opacity:0; stroke-width: 0.2; stroke: #000000" cx="725" cy="41" rx="2" ry="2"/>
    <text font-size="12.8" style="fill: #000000;text-anchor:start;font-family:monospace;font-style:normal;font-weight:normal" x="729" y="47">action</text>
    <text font-size="12.8" style="fill: #000000;text-anchor:start;font-family:monospace;font-style:normal;font-weight:normal" x="785.2" y="47">STRING</text>
    <ellipse style="fill: none; fill-opacity:0; stroke-width: 0.2; stroke: #000000" cx="725" cy="57" rx="2" ry="2"/>
    <text font-size="12.8" style="fill: #000000;text-anchor:start;font-family:monospace;font-style:normal;font-weight:normal" x="729" y="63">method</text>
    <text font-size="12.8" style="fill: #000000;text-anchor:start;font-family:monospace;font-style:normal;font-weight:normal" x="785.2" y="63">STRING</text>
  </g>
  <g>
    <rect style="fill: #ffc760" x="260.1" y="-3.5" width="110.7" height="18"/>
    <rect style="fill: none; fill-opacity:0; stroke-width: 2; stroke: #000000" x="260.1" y="-3.5" width="110.7" height="18"/>
    <text font-size="11.2" style="fill: #000000;text-anchor:middle;font-family:sans-serif;font-style:normal;font-weight:700" x="315.45" y="10.5">BlackWhiteList</text>
    <rect style="fill: #ffc760" x="260.1" y="14.5" width="110.7" height="52"/>
    <rect style="fill: none; fill-opacity:0; stroke-width: 2; stroke: #000000" x="260.1" y="14.5" width="110.7" height="52"/>
    <polygon style="fill: #000000" points="263.1,24.5 265.1,27.5 267.1,24.5 265.1,21.5 "/>
    <text font-size="12.8" style="fill: #000000;text-anchor:start;font-family:monospace;font-style:normal;font-weight:normal" x="269.1" y="30.5">@orid</text>
    <text font-size="12.8" style="fill: #000000;text-anchor:start;font-family:monospace;font-style:normal;font-weight:normal" x="317.6" y="30.5">ORID</text>
    <line style="fill: none; fill-opacity:0; stroke-width: 1; stroke: #000000" x1="269.1" y1="32.1" x2="348.4" y2="32.1"/>
    <ellipse style="fill: none; fill-opacity:0; stroke-width: 0.2; stroke: #000000" cx="265.1" cy="40.5" rx="2" ry="2"/>
    <text font-size="12.8" style="fill: #000000;text-anchor:start;font-family:monospace;font-style:normal;font-weight:normal" x="269.1" y="46.5">url</text>
    <text font-size="12.8" style="fill: #000000;text-anchor:start;font-family:monospace;font-style:normal;font-weight:normal" x="317.6" y="46.5">STRING</text>
    <ellipse style="fill: none; fill-opacity:0; stroke-width: 0.2; stroke: #000000" cx="265.1" cy="56.5" rx="2" ry="2"/>
    <text font-size="12.8" style="fill: #000000;text-anchor:start;font-family:monospace;font-style:normal;font-weight:normal" x="269.1" y="62.5">type</text>
    <text font-size="12.8" style="fill: #000000;text-anchor:start;font-family:monospace;font-style:normal;font-weight:normal" x="317.6" y="62.5">STRING</text>
  </g>
  <g>
    <rect style="fill: #ffc760" x="414.2" y="-35" width="172.3" height="18"/>
    <rect style="fill: none; fill-opacity:0; stroke-width: 2; stroke: #000000" x="414.2" y="-35" width="172.3" height="18"/>
    <text font-size="11.2" style="fill: #000000;text-anchor:middle;font-family:sans-serif;font-style:normal;font-weight:700" x="500.35" y="-21">Resource</text>
    <rect style="fill: #ffc760" x="414.2" y="-17" width="172.3" height="100"/>
    <rect style="fill: none; fill-opacity:0; stroke-width: 2; stroke: #000000" x="414.2" y="-17" width="172.3" height="100"/>
    <polygon style="fill: #000000" points="417.2,-7 419.2,-4 421.2,-7 419.2,-10 "/>
    <text font-size="12.8" style="fill: #000000;text-anchor:start;font-family:monospace;font-style:normal;font-weight:normal" x="423.2" y="-1">@orid</text>
    <text font-size="12.8" style="fill: #000000;text-anchor:start;font-family:monospace;font-style:normal;font-weight:normal" x="525.6" y="-1">ORID</text>
    <line style="fill: none; fill-opacity:0; stroke-width: 1; stroke: #000000" x1="423.2" y1="0.6" x2="556.4" y2="0.6"/>
    <ellipse style="fill: none; fill-opacity:0; stroke-width: 0.2; stroke: #000000" cx="419.2" cy="9" rx="2" ry="2"/>
    <text font-size="12.8" style="fill: #000000;text-anchor:start;font-family:monospace;font-style:normal;font-weight:normal" x="423.2" y="15">url</text>
    <text font-size="12.8" style="fill: #000000;text-anchor:start;font-family:monospace;font-style:normal;font-weight:normal" x="525.6" y="15">STRING</text>
    <ellipse style="fill: none; fill-opacity:0; stroke-width: 0.2; stroke: #000000" cx="419.2" cy="25" rx="2" ry="2"/>
    <text font-size="12.8" style="fill: #000000;text-anchor:start;font-family:monospace;font-style:normal;font-weight:normal" x="423.2" y="31">path</text>
    <text font-size="12.8" style="fill: #000000;text-anchor:start;font-family:monospace;font-style:normal;font-weight:normal" x="525.6" y="31">STRING</text>
    <ellipse style="fill: none; fill-opacity:0; stroke-width: 0.2; stroke: #000000" cx="419.2" cy="41" rx="2" ry="2"/>
    <text font-size="12.8" style="fill: #000000;text-anchor:start;font-family:monospace;font-style:normal;font-weight:normal" x="423.2" y="47">code</text>
    <text font-size="12.8" style="fill: #000000;text-anchor:start;font-family:monospace;font-style:normal;font-weight:normal" x="525.6" y="47">INTEGER</text>
    <ellipse style="fill: none; fill-opacity:0; stroke-width: 0.2; stroke: #000000" cx="419.2" cy="57" rx="2" ry="2"/>
    <text font-size="12.8" style="fill: #000000;text-anchor:start;font-family:monospace;font-style:normal;font-weight:normal" x="423.2" y="63">mimeType</text>
    <text font-size="12.8" style="fill: #000000;text-anchor:start;font-family:monospace;font-style:normal;font-weight:normal" x="525.6" y="63">STRING</text>
    <ellipse style="fill: none; fill-opacity:0; stroke-width: 0.2; stroke: #000000" cx="419.2" cy="73" rx="2" ry="2"/>
    <text font-size="12.8" style="fill: #000000;text-anchor:start;font-family:monospace;font-style:normal;font-weight:normal" x="423.2" y="79">downloadTime</text>
    <text font-size="12.8" style="fill: #000000;text-anchor:start;font-family:monospace;font-style:normal;font-weight:normal" x="525.6" y="79">Integer</text>
  </g>
  <g>
    <rect style="fill: #ffc760" x="534.3" y="144.5" width="141.5" height="18"/>
    <rect style="fill: none; fill-opacity:0; stroke-width: 2; stroke: #000000" x="534.3" y="144.5" width="141.5" height="18"/>
    <text font-size="11.2" style="fill: #000000;text-anchor:middle;font-family:sans-serif;font-style:normal;font-weight:700" x="605.05" y="158.5">Project</text>
    <rect style="fill: #ffc760" x="534.3" y="162.5" width="141.5" height="84"/>
    <rect style="fill: none; fill-opacity:0; stroke-width: 2; stroke: #000000" x="534.3" y="162.5" width="141.5" height="84"/>
    <polygon style="fill: #000000" points="537.3,172.5 539.3,175.5 541.3,172.5 539.3,169.5 "/>
    <text font-size="12.8" style="fill: #000000;text-anchor:start;font-family:monospace;font-style:normal;font-weight:normal" x="543.3" y="178.5">@orid</text>
    <text font-size="12.8" style="fill: #000000;text-anchor:start;font-family:monospace;font-style:normal;font-weight:normal" x="607.2" y="178.5">ORID</text>
    <line style="fill: none; fill-opacity:0; stroke-width: 1; stroke: #000000" x1="543.3" y1="180.1" x2="638" y2="180.1"/>
    <ellipse style="fill: none; fill-opacity:0; stroke-width: 0.2; stroke: #000000" cx="539.3" cy="188.5" rx="2" ry="2"/>
    <text font-size="12.8" style="fill: #000000;text-anchor:start;font-family:monospace;font-style:normal;font-weight:normal" x="543.3" y="194.5">name</text>
    <text font-size="12.8" style="fill: #000000;text-anchor:start;font-family:monospace;font-style:normal;font-weight:normal" x="607.2" y="194.5">STRING</text>
    <ellipse style="fill: none; fill-opacity:0; stroke-width: 0.2; stroke: #000000" cx="539.3" cy="204.5" rx="2" ry="2"/>
    <text font-size="12.8" style="fill: #000000;text-anchor:start;font-family:monospace;font-style:normal;font-weight:normal" x="543.3" y="210.5">domain</text>
    <text font-size="12.8" style="fill: #000000;text-anchor:start;font-family:monospace;font-style:normal;font-weight:normal" x="607.2" y="210.5">STRING</text>
    <ellipse style="fill: none; fill-opacity:0; stroke-width: 0.2; stroke: #000000" cx="539.3" cy="220.5" rx="2" ry="2"/>
    <text font-size="12.8" style="fill: #000000;text-anchor:start;font-family:monospace;font-style:normal;font-weight:normal" x="543.3" y="226.5">cluster</text>
    <text font-size="12.8" style="fill: #000000;text-anchor:start;font-family:monospace;font-style:normal;font-weight:normal" x="607.2" y="226.5">STRING</text>
    <ellipse style="fill: none; fill-opacity:0; stroke-width: 0.2; stroke: #000000" cx="539.3" cy="236.5" rx="2" ry="2"/>
    <text font-size="12.8" style="fill: #000000;text-anchor:start;font-family:monospace;font-style:normal;font-weight:normal" x="543.3" y="242.5">date</text>
    <text font-size="12.8" style="fill: #000000;text-anchor:start;font-family:monospace;font-style:normal;font-weight:normal" x="607.2" y="242.5">DATETIME</text>
  </g>
  <g>
    <rect style="fill: #90ee90" x="624" y="16" width="55.5" height="18"/>
    <rect style="fill: none; fill-opacity:0; stroke-width: 2; stroke: #000000" x="624" y="16" width="55.5" height="18"/>
    <text font-size="11.2" style="fill: #000000;text-anchor:middle;font-family:sans-serif;font-style:normal;font-weight:700" x="651.75" y="30">Includes</text>
    <rect style="fill: #90ee90" x="624" y="34" width="55.5" height="4"/>
    <rect style="fill: none; fill-opacity:0; stroke-width: 2; stroke: #000000" x="624" y="34" width="55.5" height="4"/>
  </g>
  <polyline style="fill: none; fill-opacity:0; stroke-width: 2; stroke: #000000" points="586.5,25 586.5,25 624,25 624,25 "/>
  <g>
    <polyline style="fill: none; fill-opacity:0; stroke-width: 2; stroke: #000000" points="679.5,25 679.5,25 710.264,25 "/>
    <polygon style="fill: #000000" points="717.764,25 707.764,30 710.264,25 707.764,20 "/>
    <polygon style="fill: none; fill-opacity:0; stroke-width: 2; stroke: #000000" points="717.764,25 707.764,30 710.264,25 707.764,20 "/>
  </g>
  <g>
    <rect style="fill: #90ee90" x="482" y="113" width="35.55" height="18"/>
    <rect style="fill: none; fill-opacity:0; stroke-width: 2; stroke: #000000" x="482" y="113" width="35.55" height="18"/>
    <text font-size="11.2" style="fill: #000000;text-anchor:middle;font-family:sans-serif;font-style:normal;font-weight:700" x="499.775" y="127">Root</text>
    <rect style="fill: #90ee90" x="482" y="131" width="35.55" height="4"/>
    <rect style="fill: none; fill-opacity:0; stroke-width: 2; stroke: #000000" x="482" y="131" width="35.55" height="4"/>
  </g>
  <g>
    <rect style="fill: #90ee90" x="549" y="-127" width="118.4" height="18"/>
    <rect style="fill: none; fill-opacity:0; stroke-width: 2; stroke: #000000" x="549" y="-127" width="118.4" height="18"/>
    <text font-size="11.2" style="fill: #000000;text-anchor:middle;font-family:sans-serif;font-style:normal;font-weight:700" x="608.2" y="-113">LinkTo</text>
    <rect style="fill: #90ee90" x="549" y="-109" width="118.4" height="52"/>
    <rect style="fill: none; fill-opacity:0; stroke-width: 2; stroke: #000000" x="549" y="-109" width="118.4" height="52"/>
    <ellipse style="fill: none; fill-opacity:0; stroke-width: 0.2; stroke: #000000" cx="554" cy="-99" rx="2" ry="2"/>
    <text font-size="12.8" style="fill: #000000;text-anchor:start;font-family:monospace;font-style:normal;font-weight:normal" x="558" y="-93">count</text>
    <text font-size="12.8" style="fill: #000000;text-anchor:start;font-family:monospace;font-style:normal;font-weight:normal" x="606.5" y="-93">INTEGER</text>
    <ellipse style="fill: none; fill-opacity:0; stroke-width: 0.2; stroke: #000000" cx="554" cy="-83" rx="2" ry="2"/>
    <text font-size="12.8" style="fill: #000000;text-anchor:start;font-family:monospace;font-style:normal;font-weight:normal" x="558" y="-77">path</text>
    <text font-size="12.8" style="fill: #000000;text-anchor:start;font-family:monospace;font-style:normal;font-weight:normal" x="606.5" y="-77">STRING</text>
    <ellipse style="fill: none; fill-opacity:0; stroke-width: 0.2; stroke: #000000" cx="554" cy="-67" rx="2" ry="2"/>
    <text font-size="12.8" style="fill: #000000;text-anchor:start;font-family:monospace;font-style:normal;font-weight:normal" x="558" y="-61">type</text>
    <text font-size="12.8" style="fill: #000000;text-anchor:start;font-family:monospace;font-style:normal;font-weight:normal" x="606.5" y="-61">STRING</text>
  </g>
  <polyline style="fill: none; fill-opacity:0; stroke-width: 2; stroke: #000000" points="414.2,-7 394.2,-7 394.2,-147 608.2,-147 608.2,-127 "/>
  <g>
    <polyline style="fill: none; fill-opacity:0; stroke-width: 2; stroke: #000000" points="499.775,113 499.775,98 500.35,98 500.35,92.7361 "/>
    <polygon style="fill: #000000" points="500.35,85.2361 505.35,95.2361 500.35,92.7361 495.35,95.2361 "/>
    <polygon style="fill: none; fill-opacity:0; stroke-width: 2; stroke: #000000" points="500.35,85.2361 505.35,95.2361 500.35,92.7361 495.35,95.2361 "/>
  </g>
  <polyline style="fill: none; fill-opacity:0; stroke-width: 2; stroke: #000000" points="534.3,172.5 499.775,172.5 499.775,135 "/>
  <g>
    <rect style="fill: #63b2ff" x="257" y="104.75" width="141.5" height="18"/>
    <rect style="fill: none; fill-opacity:0; stroke-width: 2; stroke: #000000" x="257" y="104.75" width="141.5" height="18"/>
    <text font-size="11.2" style="fill: #000000;text-anchor:middle;font-family:sans-serif;font-style:normal;font-weight:700" x="327.75" y="118.75">LinkQue</text>
    <rect style="fill: #63b2ff" x="257" y="122.75" width="141.5" height="116"/>
    <rect style="fill: none; fill-opacity:0; stroke-width: 2; stroke: #000000" x="257" y="122.75" width="141.5" height="116"/>
    <polygon style="fill: #000000" points="260,132.75 262,135.75 264,132.75 262,129.75 "/>
    <text font-size="12.8" style="fill: #000000;text-anchor:start;font-family:monospace;font-style:normal;font-weight:normal" x="266" y="138.75">orid</text>
    <text font-size="12.8" style="fill: #000000;text-anchor:start;font-family:monospace;font-style:normal;font-weight:normal" x="337.6" y="138.75">ORID</text>
    <line style="fill: none; fill-opacity:0; stroke-width: 1; stroke: #000000" x1="266" y1="140.35" x2="368.4" y2="140.35"/>
    <ellipse style="fill: none; fill-opacity:0; stroke-width: 0.2; stroke: #000000" cx="262" cy="148.75" rx="2" ry="2"/>
    <text font-size="12.8" style="fill: #000000;text-anchor:start;font-family:monospace;font-style:normal;font-weight:normal" x="266" y="154.75">depth</text>
    <text font-size="12.8" style="fill: #000000;text-anchor:start;font-family:monospace;font-style:normal;font-weight:normal" x="337.6" y="154.75">INTEGER</text>
    <ellipse style="fill: none; fill-opacity:0; stroke-width: 0.2; stroke: #000000" cx="262" cy="164.75" rx="2" ry="2"/>
    <text font-size="12.8" style="fill: #000000;text-anchor:start;font-family:monospace;font-style:normal;font-weight:normal" x="266" y="170.75">from</text>
    <text font-size="12.8" style="fill: #000000;text-anchor:start;font-family:monospace;font-style:normal;font-weight:normal" x="337.6" y="170.75">STRING</text>
    <ellipse style="fill: none; fill-opacity:0; stroke-width: 0.2; stroke: #000000" cx="262" cy="180.75" rx="2" ry="2"/>
    <text font-size="12.8" style="fill: #000000;text-anchor:start;font-family:monospace;font-style:normal;font-weight:normal" x="266" y="186.75">path</text>
    <text font-size="12.8" style="fill: #000000;text-anchor:start;font-family:monospace;font-style:normal;font-weight:normal" x="337.6" y="186.75">STRING</text>
    <ellipse style="fill: none; fill-opacity:0; stroke-width: 0.2; stroke: #000000" cx="262" cy="196.75" rx="2" ry="2"/>
    <text font-size="12.8" style="fill: #000000;text-anchor:start;font-family:monospace;font-style:normal;font-weight:normal" x="266" y="202.75">count</text>
    <text font-size="12.8" style="fill: #000000;text-anchor:start;font-family:monospace;font-style:normal;font-weight:normal" x="337.6" y="202.75">INTEGER</text>
    <ellipse style="fill: none; fill-opacity:0; stroke-width: 0.2; stroke: #000000" cx="262" cy="212.75" rx="2" ry="2"/>
    <text font-size="12.8" style="fill: #000000;text-anchor:start;font-family:monospace;font-style:normal;font-weight:normal" x="266" y="218.75">type</text>
    <text font-size="12.8" style="fill: #000000;text-anchor:start;font-family:monospace;font-style:normal;font-weight:normal" x="337.6" y="218.75">STRING</text>
    <ellipse style="fill: #000000" cx="262" cy="228.75" rx="2" ry="2"/>
    <text font-size="12.8" style="fill: #000000;text-anchor:start;font-family:monospace;font-style:normal;font-weight:normal" x="266" y="234.75">position</text>
    <text font-size="12.8" style="fill: #000000;text-anchor:start;font-family:monospace;font-style:normal;font-weight:normal" x="337.6" y="234.75">INTEGER</text>
  </g>
  <g>
    <polyline style="fill: none; fill-opacity:0; stroke-width: 2; stroke: #000000" points="608.2,-57 608.2,-7 596.236,-7 "/>
    <polygon style="fill: #000000" points="588.736,-7 598.736,-12 596.236,-7 598.736,-2 "/>
    <polygon style="fill: none; fill-opacity:0; stroke-width: 2; stroke: #000000" points="588.736,-7 598.736,-12 596.236,-7 598.736,-2 "/>
  </g>
</svg>
